<?xml version="1.0" encoding="UTF-8" standalone="no"?>
<svg
   xmlns:dc="http://purl.org/dc/elements/1.1/"
   xmlns:cc="http://creativecommons.org/ns#"
   xmlns:rdf="http://www.w3.org/1999/02/22-rdf-syntax-ns#"
   xmlns:svg="http://www.w3.org/2000/svg"
   xmlns="http://www.w3.org/2000/svg"
   xmlns:sodipodi="http://sodipodi.sourceforge.net/DTD/sodipodi-0.dtd"
   xmlns:inkscape="http://www.inkscape.org/namespaces/inkscape"
   width="924.84375"
   height="624.84375"
   viewBox="-75 -40 123.3125 83.3125"
   id="svg2"
   version="1.1"
   inkscape:version="0.48.2 r9819"
   sodipodi:docname="AJAX.svg">
  <metadata
     id="metadata31">
    <rdf:RDF>
      <cc:Work
         rdf:about="">
        <dc:format>image/svg+xml</dc:format>
        <dc:type
           rdf:resource="http://purl.org/dc/dcmitype/StillImage" />
      </cc:Work>
    </rdf:RDF>
  </metadata>
  <defs
     id="defs29" />
  <sodipodi:namedview
     pagecolor="#ffffff"
     bordercolor="#666666"
     borderopacity="1"
     objecttolerance="10"
     gridtolerance="10"
     guidetolerance="10"
     inkscape:pageopacity="0"
     inkscape:pageshadow="2"
     inkscape:window-width="1280"
     inkscape:window-height="1004"
     id="namedview27"
     showgrid="false"
     inkscape:zoom="0.71555556"
     inkscape:cx="511.67205"
     inkscape:cy="388.66158"
     inkscape:window-x="-8"
     inkscape:window-y="-8"
     inkscape:window-maximized="1"
     inkscape:current-layer="svg2"
     fit-margin-top="0"
     fit-margin-left="0"
     fit-margin-right="0"
     fit-margin-bottom="0" />
  <comment
     id="comment12">rotation angles = -arctan(8/9)</comment>
  <rect
     id="rect2994"
     height="80"
     width="120"
     y="-38.34375"
     x="-73.34375"
     style="fill:none;stroke:#000000;stroke-width:3.33333325;stroke-miterlimit:4;stroke-opacity:1;stroke-dasharray:none" />
  <rect
     id="rect3775"
     height="80"
     width="120"
     y="-38.34375"
     x="-73.34375"
     style="fill:#ffffff;stroke:none" />
  <rect
     style="fill:#01411c;fill-opacity:1;stroke:none"
     id="rect3777"
     height="80"
     width="90"
     y="-38.34375"
     x="-43.34375" />
  <circle
     id="circle3779"
     r="24"
     style="fill:#ffffff;stroke:none"
     cx="0"
     cy="0"
     sodipodi:cx="0"
     sodipodi:cy="0"
     sodipodi:rx="24"
     sodipodi:ry="24"
     transform="translate(1.65625,1.65625)" />
  <circle
     style="fill:#01411c;fill-opacity:1;stroke:none"
     id="circle3781"
     transform="matrix(0.74740932,-0.66436384,0.66436384,0.74740932,39.597384,21.448995)"
     cy="-40"
     cx="-7"
     r="22"
     sodipodi:cx="-7"
     sodipodi:cy="-40"
     sodipodi:rx="22"
     sodipodi:ry="22" />
  <g
     transform="matrix(0.74740932,-0.66436384,0.66436384,0.74740932,13.614799,-8.973571)"
     id="g3783"
     style="fill:#ffffff">
    <g
       id="g3785">
      <polygon
         transform="matrix(0.95105652,0.30901699,-0.30901699,0.95105652,8,0)"
         points="0,0 -8,0 -8,4 "
         id="polygon3787" />
      <polygon
         transform="matrix(0.95105652,-0.30901699,-0.30901699,-0.95105652,8,0)"
         points="-8,4 0,0 -8,0 "
         id="use3789" />
    </g>
    <g
       id="use3791"
       transform="matrix(0.30901699,0.95105652,-0.95105652,0.30901699,0,0)">
      <polygon
         transform="matrix(0.95105652,0.30901699,-0.30901699,0.95105652,8,0)"
         points="-8,4 0,0 -8,0 "
         id="polygon3880" />
      <polygon
         transform="matrix(0.95105652,-0.30901699,-0.30901699,-0.95105652,8,0)"
         points="-8,4 0,0 -8,0 "
         id="use3882" />
    </g>
    <g
       id="use3793"
       transform="matrix(0.30901699,-0.95105652,0.95105652,0.30901699,0,0)">
      <polygon
         transform="matrix(0.95105652,0.30901699,-0.30901699,0.95105652,8,0)"
         points="-8,4 0,0 -8,0 "
         id="polygon3886" />
      <polygon
         transform="matrix(0.95105652,-0.30901699,-0.30901699,-0.95105652,8,0)"
         points="-8,4 0,0 -8,0 "
         id="use3888" />
    </g>
    <g
       id="use3795"
       transform="matrix(-0.80901699,0.58778525,-0.58778525,-0.80901699,0,0)">
      <polygon
         transform="matrix(0.95105652,0.30901699,-0.30901699,0.95105652,8,0)"
         points="-8,4 0,0 -8,0 "
         id="polygon3892" />
      <polygon
         transform="matrix(0.95105652,-0.30901699,-0.30901699,-0.95105652,8,0)"
         points="-8,4 0,0 -8,0 "
         id="use3894" />
    </g>
    <g
       id="use3797"
       transform="matrix(-0.80901699,-0.58778525,0.58778525,-0.80901699,0,0)">
      <polygon
         transform="matrix(0.95105652,0.30901699,-0.30901699,0.95105652,8,0)"
         points="-8,4 0,0 -8,0 "
         id="polygon3898" />
      <polygon
         transform="matrix(0.95105652,-0.30901699,-0.30901699,-0.95105652,8,0)"
         points="-8,4 0,0 -8,0 "
         id="use3900" />
    </g>
  </g>
</svg>